<svg xmlns="http://www.w3.org/2000/svg" viewBox="0 0 1776.14 1081.06"><defs><style>.cls-1{fill:none;stroke:#fff;stroke-miterlimit:10;}</style></defs><g id="Calque_2" data-name="Calque 2"><g id="Calque_1-2" data-name="Calque 1"><path class="cls-1" d="M872.83,93.42,847.09,70.16s-163.26-3.47-212.46-9.67l-25.8,20.4s-112.8-5.8-351.6-48.4l-27-32"/><path class="cls-1" d="M903.83,93.42l25.73-23.26s163.27-3.47,212.47-9.67l25.8,20.4s112.8-5.8,351.6-48.4l27-32"/><path class="cls-1" d="M657.16.36l47.73,47.2s130.4,6.4,181.87,5.6,176.53-3.74,185.6-5.34L1119.83.89"/><path class="cls-1" d="M58.76,66.76S172,94.89,313.43,111.69"/><path class="cls-1" d="M49.63,90.69s118.8,24.8,259.6,41.2"/><path class="cls-1" d="M0,348.69s136.55,7.2,279.05,12.3"/><path class="cls-1" d="M347.29,1080.09s99.07-31.6,195.6-48.93c0,0-19.73,20.26-30.4,33.86,0,0-52,10.54-65.06,15.47"/><path class="cls-1" d="M1419.19,1080.19s-99.06-31.6-195.6-48.93c0,0,19.74,20.26,30.4,33.86,0,0,52,10.54,65.07,15.47"/><path class="cls-1" d="M512.76,1080.36s54.4-61.07,56.4-61.47c0,0,305.5-62.5,628.4-.27,0,0,51.27,54.67,56.07,61.47"/><path class="cls-1" d="M1716.38,71.32s-113.56,26.94-255.13,42.26"/><path class="cls-1" d="M1721.43,91.22s-117.06,26.62-258,41.55"/><path class="cls-1" d="M1776.11,349.56s-136.55,7.2-279,12.3"/></g></g></svg>