<svg xmlns="http://www.w3.org/2000/svg" xmlns:xlink="http://www.w3.org/1999/xlink" viewBox="0 0 100.82 255.17"><defs><style>.cls-1{fill:#010204;}.cls-2{fill:url(#Dégradé_sans_nom_251);}.cls-3{fill:url(#Dégradé_sans_nom_237);}.cls-4{fill:url(#Dégradé_sans_nom_220);}</style><linearGradient id="Dégradé_sans_nom_251" x1="-2685.6" y1="2.45" x2="-2685.6" y2="275.34" gradientTransform="matrix(-1, 0, 0, 1, -2630.38, 0)" gradientUnits="userSpaceOnUse"><stop offset="0" stop-color="#07111b"/><stop offset="0.27" stop-color="#2a4e66"/><stop offset="0.37" stop-color="#6d8c9d"/><stop offset="0.45" stop-color="#a4c0cb"/><stop offset="0.49" stop-color="#b9d4dd"/><stop offset="0.82" stop-color="#bad6df"/><stop offset="0.94" stop-color="#bedce6"/><stop offset="1" stop-color="#c2e4ee"/></linearGradient><linearGradient id="Dégradé_sans_nom_237" x1="-2683.76" x2="-2683.76" y2="246.62" gradientTransform="matrix(-1, 0, 0, 1, -2630.38, 0)" gradientUnits="userSpaceOnUse"><stop offset="0" stop-color="#0f1d28"/><stop offset="0.06" stop-color="#1c2c38"/><stop offset="0.19" stop-color="#314552"/><stop offset="0.33" stop-color="#425966"/><stop offset="0.49" stop-color="#4e6675"/><stop offset="0.69" stop-color="#556f7d"/><stop offset="1" stop-color="#577180"/></linearGradient><linearGradient id="Dégradé_sans_nom_220" x1="-2680.73" y1="2.67" x2="-2680.73" y2="254.44" gradientTransform="matrix(-1, 0, 0, 1, -2630.38, 0)" gradientUnits="userSpaceOnUse"><stop offset="0" stop-color="#25414f"/><stop offset="0.3" stop-color="#8b9da3"/><stop offset="0.54" stop-color="#dce6e7"/></linearGradient></defs><g id="Calque_2" data-name="Calque 2"><g id="Calque_1-2" data-name="Calque 1"><path class="cls-1" d="M15.42,0c8.87,21.35,22.91,56.15,28.47,75.47,0,0,32.26,37.36,56.93,120.68V0Z"/><path class="cls-2" d="M9.63,0c8.77,21,23.8,58,29.59,78.14,0,0,37.06,43.36,61.6,141.69V196.15C76.15,112.83,43.89,75.47,43.89,75.47,38.33,56.15,24.29,21.35,15.42,0Z"/><path class="cls-3" d="M5.93,0c8.62,20.61,24.39,59.25,30.36,80,0,0,41.46,50.7,64.53,166.62l0-31.25C76.25,117,39.22,78.14,39.22,78.14,33.43,58,18.4,21,9.63,0Z"/><path class="cls-4" d="M0,0C8.31,19.77,25.25,61,31.49,82.67c0,0,47.85,37.48,69.2,172.5v-22C77.62,117.25,36.29,80,36.29,80c-6-20.75-21.74-59.39-30.36-80Z"/></g></g></svg>