mtllib model_6.mtl
o model_6
v 77.3565902709961 -145.84930419921875 23.912282943725586 
v 76.89939880371094 -148.80245971679688 23.663700103759766 
v 79.0499038696289 -146.36883544921875 26.820703506469727 
v 78.59271240234375 -149.32200622558594 26.572120666503906 
vn -0.8535270094871521 0.0865507647395134 0.5138099193572998 
vn -0.8535270094871521 0.0865507647395134 0.5138099193572998 
vn -0.8535270094871521 0.0865507647395134 0.5138099193572998 
vn -0.8535270094871521 0.0865507647395134 0.5138099193572998 
vt -0.004000000189989805 0.03864752873778343 
vt 0.8565734028816223 0.03229999914765358 
vt 0.05772699415683746 0.9603995680809021 
vt 0.9183003902435303 0.9540520310401917 
s on 
f 1/1/1 2/2/2 3/3/3 
f 2/2/2 4/4/4 3/3/3 

