mtllib model_7.mtl
o model_7
v -18.418094635009766 -144.7895965576172 24.87459945678711 
v -18.906978607177734 -141.173095703125 25.149276733398438 
v -19.998817443847656 -145.20199584960938 27.506927490234375 
v -20.487699508666992 -141.58551025390625 27.781604766845703 
vn 0.85005122423172 0.07531612366437912 0.5212872624397278 
vn 0.85005122423172 0.07531612366437912 0.5212872624397278 
vn 0.85005122423172 0.07531612366437912 0.5212872624397278 
vn 0.85005122423172 0.07531612366437912 0.5212872624397278 
vt 0.07009131461381912 0.04610000178217888 
vt 0.9749037623405457 0.04942487180233002 
vt 0.025100000202655792 0.9505754709243774 
vt 0.9299124479293823 0.9539003372192383 
s on 
f 1/1/1 2/2/2 3/3/3 
f 2/2/2 4/4/4 3/3/3 

