mtllib model_8.mtl
o model_8
v -16.294694900512695 -144.2406005859375 21.253400802612305 
v -16.783578872680664 -140.6240997314453 21.528078079223633 
v -17.875417709350586 -144.6529998779297 23.885726928710938 
v -18.364299774169922 -141.03651428222656 24.160404205322266 
vn 0.85005122423172 0.07531612366437912 0.5212872624397278 
vn 0.85005122423172 0.07531612366437912 0.5212872624397278 
vn 0.85005122423172 0.07531612366437912 0.5212872624397278 
vn 0.85005122423172 0.07531612366437912 0.5212872624397278 
vt 0.06577862054109573 0.053322430700063705 
vt 0.9709011912345886 0.04340000078082085 
vt 0.029100000858306885 0.9565982222557068 
vt 0.9342225790023804 0.9466757774353027 
s on 
f 1/1/1 2/2/2 3/3/3 
f 2/2/2 4/4/4 3/3/3 

