mtllib model_10.mtl
o model_10
v -14.429502487182617 -132.49658203125 15.798700332641602 
v -14.790069580078125 -129.7949981689453 15.999037742614746 
v -15.976933479309082 -132.88600158691406 18.425355911254883 
v -16.337499618530273 -130.18441772460938 18.625694274902344 
vn 0.8545936942100525 0.07529279589653015 0.5138099193572998 
vn 0.8545936942100525 0.07529279589653015 0.5138099193572998 
vn 0.8545936942100525 0.07529279589653015 0.5138099193572998 
vn 0.8545936942100525 0.07529279589653015 0.5138099193572998 
vt 0.08805403113365173 0.04021193087100983 
vt 0.960898756980896 0.0203000009059906 
vt 0.03909999877214432 0.9797036647796631 
vt 0.9119447469711304 0.9597917199134827 
s on 
f 1/1/1 2/2/2 3/3/3 
f 2/2/2 4/4/4 3/3/3 

