mtllib model_12.mtl
o model_12
v 36.53990173339844 -177.53041076660156 15.357500076293945 
v 36.53990173339844 -183.47500610351562 18.78959846496582 
v 42.73419952392578 -177.53041076660156 15.357500076293945 
v 42.73419952392578 -183.47500610351562 18.78959846496582 
vn 0.0037625895347446203 0.5006163716316223 0.865661084651947 
vn 0.0037625895347446203 0.5006163716316223 0.865661084651947 
vn 0.0037625895347446203 0.5006163716316223 0.865661084651947 
vn 0.0037625895347446203 0.5006163716316223 0.865661084651947 
vt 1.0000005960464478 0 
vt 1.0000005960464478 1.0000005960464478 
vt 0 0 
vt 0 1.0000005960464478 
s on 
f 1/1/1 2/2/2 3/3/3 
f 2/2/2 4/4/4 3/3/3 

