mtllib model_9.mtl
o model_9
v -17.05439567565918 -139.24017333984375 20.988500595092773 
v -18.061748504638672 -131.74169921875 21.53481101989746 
v -18.5555477142334 -139.61199951171875 23.59589195251465 
v -19.56290054321289 -132.113525390625 24.142202377319336 
vn 0.8590614795684814 0.07536856830120087 0.5062933564186096 
vn 0.8590614795684814 0.07536856830120087 0.5062933564186096 
vn 0.8590614795684814 0.07536856830120087 0.5062933564186096 
vn 0.8590614795684814 0.07536856830120087 0.5062933564186096 
vt 0.03128441423177719 0.09545164555311203 
vt 0.9874027371406555 0.08240000158548355 
vt 0.012600000016391277 0.9176034927368164 
vt 0.9687182903289795 0.9045518636703491 
s on 
f 1/1/1 2/2/2 3/3/3 
f 2/2/2 4/4/4 3/3/3 

