mtllib model_3.mtl
o model_3
v 76.01848602294922 426.05621337890625 90.81292724609375 
v 77.50048828125 425.6029357910156 89.45760345458984 
v 75.27216339111328 427.2494201660156 81.25404357910156 
v 77.17304229736328 426.3816223144531 83.91094970703125 
v -18.495899200439453 425.6029357910156 89.45760345458984 
v -17.013896942138672 426.05621337890625 90.81292724609375 
v -18.168455123901367 426.3816223144531 83.91094970703125 
v -16.26970672607422 427.2494201660156 81.25404357910156 
v 60.83698654174805 394.99786376953125 -64.02783966064453 
v 60.83698654174805 395.11798095703125 -70.13572692871094 
v 49.810203552246094 394.99786376953125 -64.02783966064453 
v 49.810203552246094 395.11798095703125 -70.13572692871094 
v 34.70100021362305 395.11798095703125 -70.13572692871094 
v 34.70100021362305 394.99786376953125 -64.02783966064453 
v 46.136024475097656 395.11798095703125 -70.13572692871094 
v 46.136024475097656 394.99786376953125 -64.02783966064453 
v 20.000038146972656 395.11798095703125 -70.13572692871094 
v 20.000038146972656 394.99786376953125 -64.02783966064453 
v 31.024696350097656 395.11798095703125 -70.13572692871094 
v 31.024696350097656 394.99786376953125 -64.02783966064453 
vn 0.32613733410835266 0.9402129650115967 0.0981530249118805 
vn 0.32613733410835266 0.9402129650115967 0.0981530249118805 
vn 0.32613733410835266 0.9402129650115967 0.0981530249118805 
vn 0.32613733410835266 0.9402129650115967 0.0981530249118805 
vn -0.32613733410835266 0.9402129650115967 0.0981530249118805 
vn -0.32613733410835266 0.9402129650115967 0.0981530249118805 
vn -0.32613733410835266 0.9402129650115967 0.0981530249118805 
vn -0.32613733410835266 0.9402129650115967 0.0981530249118805 
vn -1.0339156559981827e-13 0.9998067021369934 0.01966099627315998 
vn -1.0339156559981827e-13 0.9998067021369934 0.01966099627315998 
vn -1.0339156559981827e-13 0.9998067021369934 0.01966099627315998 
vn -1.0339156559981827e-13 0.9998067021369934 0.01966099627315998 
vn -1.0339156559981827e-13 0.9998067021369934 0.01966099627315998 
vn -1.0339156559981827e-13 0.9998067021369934 0.01966099627315998 
vn -1.0339156559981827e-13 0.9998067021369934 0.01966099627315998 
vn -1.0339156559981827e-13 0.9998067021369934 0.01966099627315998 
vn -1.0339156559981827e-13 0.9998067021369934 0.01966099627315998 
vn -1.0339156559981827e-13 0.9998067021369934 0.01966099627315998 
vn -1.0339156559981827e-13 0.9998067021369934 0.01966099627315998 
vn -1.0339156559981827e-13 0.9998067021369934 0.01966099627315998 
s on 
f 1//1 2//2 3//3 
f 2//2 4//4 3//3 
f 3//3 4//4 4//4 
f 4//4 5//5 4//4 
f 4//4 5//5 5//5 
f 5//5 6//6 5//5 
f 5//5 6//6 7//7 
f 6//6 8//8 7//7 
f 7//7 8//8 8//8 
f 8//8 9//9 8//8 
f 8//8 9//9 9//9 
f 9//9 10//10 9//9 
f 9//9 10//10 11//11 
f 10//10 12//12 11//11 
f 11//11 12//12 12//12 
f 12//12 13//13 12//12 
f 12//12 13//13 13//13 
f 13//13 14//14 13//13 
f 13//13 14//14 15//15 
f 14//14 16//16 15//15 
f 15//15 16//16 16//16 
f 16//16 17//17 16//16 
f 16//16 17//17 17//17 
f 17//17 18//18 17//17 
f 17//17 18//18 19//19 
f 18//18 20//20 19//19 

