<svg xmlns="http://www.w3.org/2000/svg" xmlns:xlink="http://www.w3.org/1999/xlink" viewBox="0 0 194.84 163.91"><defs><style>.cls-1{fill:url(#Dégradé_sans_nom_166);}.cls-2{fill:url(#Dégradé_sans_nom_165);}.cls-3{fill:#010101;}.cls-4{fill:url(#Dégradé_sans_nom_266);}</style><linearGradient id="Dégradé_sans_nom_166" x1="186.92" y1="46.32" x2="7.57" y2="122.45" gradientUnits="userSpaceOnUse"><stop offset="0" stop-color="#c2d6df"/><stop offset="0.08" stop-color="#bacfd8"/><stop offset="0.19" stop-color="#a5bbc6"/><stop offset="0.33" stop-color="#829ba8"/><stop offset="0.49" stop-color="#536e7f"/><stop offset="0.56" stop-color="#3d5a6c"/><stop offset="0.56" stop-color="#4b6777"/><stop offset="0.57" stop-color="#6f8895"/><stop offset="0.58" stop-color="#8fa5af"/><stop offset="0.6" stop-color="#abbec5"/><stop offset="0.61" stop-color="#c1d2d7"/><stop offset="0.63" stop-color="#d2e1e4"/><stop offset="0.65" stop-color="#ddecee"/><stop offset="0.68" stop-color="#e4f2f3"/><stop offset="0.77" stop-color="#e6f4f5"/><stop offset="0.84" stop-color="#e4f2f4"/><stop offset="0.87" stop-color="#ddecee"/><stop offset="0.89" stop-color="#d2e2e5"/><stop offset="0.9" stop-color="#c1d3d8"/><stop offset="0.91" stop-color="#abbfc6"/><stop offset="0.92" stop-color="#8fa7b1"/><stop offset="0.93" stop-color="#708b98"/><stop offset="0.94" stop-color="#698593"/><stop offset="0.98" stop-color="#678493"/><stop offset="0.99" stop-color="#608092"/><stop offset="1" stop-color="#5a7d91"/></linearGradient><linearGradient id="Dégradé_sans_nom_165" x1="178.82" y1="41.81" x2="34.92" y2="142.57" gradientUnits="userSpaceOnUse"><stop offset="0" stop-color="#b4cfda"/><stop offset="0.04" stop-color="#a6bfcb"/><stop offset="0.25" stop-color="#556775"/><stop offset="0.39" stop-color="#233040"/><stop offset="0.46" stop-color="#0f1b2b"/><stop offset="0.52" stop-color="#111d2d"/><stop offset="0.54" stop-color="#172433"/><stop offset="0.56" stop-color="#222f3f"/><stop offset="0.57" stop-color="#31404f"/><stop offset="0.58" stop-color="#465664"/><stop offset="0.59" stop-color="#5f727e"/><stop offset="0.59" stop-color="#7c929e"/><stop offset="0.6" stop-color="#9eb6c0"/><stop offset="0.61" stop-color="#b9d4dd"/><stop offset="0.76" stop-color="#b7d2db"/><stop offset="0.82" stop-color="#b1cbd5"/><stop offset="0.86" stop-color="#a6c0c9"/><stop offset="0.89" stop-color="#96afb9"/><stop offset="0.92" stop-color="#8299a4"/><stop offset="0.95" stop-color="#697d8a"/><stop offset="0.97" stop-color="#4b5d6b"/><stop offset="0.99" stop-color="#2a3948"/><stop offset="1" stop-color="#111e2e"/></linearGradient><linearGradient id="Dégradé_sans_nom_266" x1="194.84" y1="84.94" x2="11.13" y2="84.94" gradientUnits="userSpaceOnUse"><stop offset="0" stop-color="#476172"/><stop offset="0.54" stop-color="#213c4d"/><stop offset="0.77" stop-color="#465c69"/><stop offset="1" stop-color="#355a6d"/></linearGradient></defs><g id="Calque_2" data-name="Calque 2"><g id="Calque_1-2" data-name="Calque 1"><path class="cls-1" d="M0,163.91H11.13c9-4.44,14.69-7.61,14.69-7.61L28,133.51l57.2-44.73,30.1,6c39.41-39.16,65.05-70,79.57-88.83V0c-15.43,19.76-41.34,50.47-80.06,88.94L83.55,82.69l-59.34,46.4L22,152.74S13.07,157.67,0,163.91Z"/><path class="cls-2" d="M19.17,163.91H31.59L34,162.58l2-21.2,53.2-41.6,28,5.6c40.17-39.91,65-70.5,77.6-87.36V10.14c-13.54,17.88-39,49-79.45,89.17L86.24,93.48l-55.37,43.3-2.08,22.07S25.16,160.86,19.17,163.91Z"/><path class="cls-3" d="M34,162.58l-2.45,1.33H194.84V18c-12.65,16.86-37.43,47.45-77.6,87.36l-28-5.6L36,141.38Z"/><path class="cls-4" d="M25.82,156.3s-5.72,3.17-14.69,7.61h8c6-3,9.62-5.06,9.62-5.06l2.08-22.07,55.37-43.3,29.15,5.83C155.83,59.12,181.3,28,194.84,10.14V6c-14.52,18.86-40.16,49.67-79.57,88.83l-30.1-6L28,133.51Z"/></g></g></svg>