<svg xmlns="http://www.w3.org/2000/svg" xmlns:xlink="http://www.w3.org/1999/xlink" viewBox="0 0 100.82 255.17"><defs><style>.cls-1{fill:#010204;}.cls-2{fill:url(#Dégradé_sans_nom_251);}.cls-3{fill:url(#Dégradé_sans_nom_237);}.cls-4{fill:url(#Dégradé_sans_nom_220);}</style><linearGradient id="Dégradé_sans_nom_251" x1="45.6" y1="2.45" x2="45.6" y2="275.34" gradientUnits="userSpaceOnUse"><stop offset="0" stop-color="#07111b"/><stop offset="0.27" stop-color="#2a4e66"/><stop offset="0.37" stop-color="#6d8c9d"/><stop offset="0.45" stop-color="#a4c0cb"/><stop offset="0.49" stop-color="#b9d4dd"/><stop offset="0.82" stop-color="#bad6df"/><stop offset="0.94" stop-color="#bedce6"/><stop offset="1" stop-color="#c2e4ee"/></linearGradient><linearGradient id="Dégradé_sans_nom_237" x1="47.44" x2="47.44" y2="246.62" gradientUnits="userSpaceOnUse"><stop offset="0" stop-color="#0f1d28"/><stop offset="0.06" stop-color="#1c2c38"/><stop offset="0.19" stop-color="#314552"/><stop offset="0.33" stop-color="#425966"/><stop offset="0.49" stop-color="#4e6675"/><stop offset="0.69" stop-color="#556f7d"/><stop offset="1" stop-color="#577180"/></linearGradient><linearGradient id="Dégradé_sans_nom_220" x1="50.47" y1="2.67" x2="50.47" y2="254.44" gradientUnits="userSpaceOnUse"><stop offset="0" stop-color="#25414f"/><stop offset="0.3" stop-color="#8b9da3"/><stop offset="0.54" stop-color="#dce6e7"/></linearGradient></defs><g id="Calque_2" data-name="Calque 2"><g id="Calque_1-2" data-name="Calque 1"><path class="cls-1" d="M85.4,0C76.53,21.35,62.49,56.15,56.93,75.47c0,0-32.26,37.36-56.93,120.68V0Z"/><path class="cls-2" d="M91.19,0C82.42,21,67.39,58,61.6,78.14c0,0-37.06,43.36-61.6,141.69V196.15C24.67,112.83,56.93,75.47,56.93,75.47,62.49,56.15,76.53,21.35,85.4,0Z"/><path class="cls-3" d="M94.89,0C86.27,20.61,70.5,59.25,64.53,80c0,0-41.46,50.7-64.53,166.62l0-31.25C24.57,117,61.6,78.14,61.6,78.14,67.39,58,82.42,21,91.19,0Z"/><path class="cls-4" d="M100.82,0C92.51,19.77,75.57,61,69.33,82.67c0,0-47.85,37.48-69.2,172.5v-22C23.2,117.25,64.53,80,64.53,80c6-20.75,21.74-59.39,30.36-80Z"/></g></g></svg>