<svg xmlns="http://www.w3.org/2000/svg" xmlns:xlink="http://www.w3.org/1999/xlink" viewBox="0 0 572.84 36.06"><defs><style>.cls-1{fill:#010101;}.cls-2{fill:url(#Dégradé_sans_nom_183);}.cls-3{fill:url(#Dégradé_sans_nom_276);}.cls-4{fill:url(#Dégradé_sans_nom_188);}</style><linearGradient id="Dégradé_sans_nom_183" x1="1.07" y1="22.94" x2="570.45" y2="22.94" gradientUnits="userSpaceOnUse"><stop offset="0" stop-color="#0f1b2b"/><stop offset="0.16" stop-color="#111d2d"/><stop offset="0.24" stop-color="#192534"/><stop offset="0.31" stop-color="#273140"/><stop offset="0.36" stop-color="#3a4351"/><stop offset="0.41" stop-color="#525b66"/><stop offset="0.46" stop-color="#717881"/><stop offset="0.5" stop-color="#959aa1"/><stop offset="0.54" stop-color="#bfc2c6"/><stop offset="0.58" stop-color="#edeeef"/><stop offset="0.58" stop-color="#f9f9f9"/></linearGradient><linearGradient id="Dégradé_sans_nom_276" x1="2.03" y1="20.78" x2="571.66" y2="20.78" gradientUnits="userSpaceOnUse"><stop offset="0" stop-color="#1c3846"/><stop offset="0.34" stop-color="#1d3948"/><stop offset="0.47" stop-color="#203f4f"/><stop offset="0.55" stop-color="#26485a"/><stop offset="0.57" stop-color="#284b5e"/><stop offset="0.6" stop-color="#2c4e61"/><stop offset="0.86" stop-color="#496776"/><stop offset="1" stop-color="#54707e"/></linearGradient><linearGradient id="Dégradé_sans_nom_188" y1="18.03" x2="572.84" y2="18.03" gradientUnits="userSpaceOnUse"><stop offset="0" stop-color="#3d5a6c"/><stop offset="0.2" stop-color="#3f5c6d"/><stop offset="0.28" stop-color="#466173"/><stop offset="0.33" stop-color="#516b7c"/><stop offset="0.37" stop-color="#627a88"/><stop offset="0.41" stop-color="#788c99"/><stop offset="0.44" stop-color="#94a3ae"/><stop offset="0.47" stop-color="#b4bfc6"/><stop offset="0.49" stop-color="#d8dee2"/><stop offset="0.51" stop-color="#f4f5f7"/></linearGradient></defs><g id="Calque_2" data-name="Calque 2"><g id="Calque_1-2" data-name="Calque 1"><polygon class="cls-1" points="568.79 36.06 1.31 36.06 1.49 35.79 285.01 14.08 568.61 35.8 568.79 36.06"/><polygon class="cls-2" points="570.45 36.06 568.79 36.06 568.61 35.8 285.01 14.08 1.49 35.79 1.31 36.06 1.07 36.06 2.03 34.22 285.4 9.81 569.38 34.28 570.45 36.06"/><polygon class="cls-3" points="571.66 36.06 570.45 36.06 569.38 34.28 285.4 9.81 2.03 34.22 2.43 33.47 286.33 5.5 570.31 33.48 571.66 36.06"/><polygon class="cls-4" points="572.84 36.06 571.66 36.06 570.31 33.48 286.33 5.5 2.43 33.47 2.03 34.22 1.5 34.27 0.43 36.06 0 36.06 2.49 30.82 286.47 0 286.39 0.02 570.36 30.84 572.84 36.06"/></g></g></svg>